<?xml version="1.0" encoding="utf-8"?>
<!-- Generator: Adobe Illustrator 25.0.1, SVG Export Plug-In . SVG Version: 6.00 Build 0)  -->
<svg version="1.0" id="katman_1" xmlns="http://www.w3.org/2000/svg" xmlns:xlink="http://www.w3.org/1999/xlink" x="0px" y="0px"
	 viewBox="0 0 600 400" style="enable-background:new 0 0 600 400;" xml:space="preserve">
<style type="text/css">
	.st0{fill-rule:evenodd;clip-rule:evenodd;fill:#2260BA;}
</style>
<g>
	<path class="st0" d="M468.1,229.2c8.1,0,14.6-6.5,14.6-14.6c0-8.1-6.5-14.6-14.6-14.6c-8.1,0-14.6,6.5-14.6,14.6
		C453.5,222.7,460.1,229.2,468.1,229.2z M468.1,222.1c4.1,0,7.5-3.3,7.5-7.5s-3.3-7.5-7.5-7.5c-4.1,0-7.5,3.3-7.5,7.5
		S464,222.1,468.1,222.1z M418.2,229.2c2.7,0,4.9-2.2,4.9-4.9s-2.2-4.9-4.9-4.9c-2.7,0-4.9,2.2-4.9,4.9
		C413.3,227.1,415.5,229.2,418.2,229.2z M520.9,209.2c-0.6-3.9-3.3-7.2-7-8.5c-3.7-1.3-7.9-0.5-10.8,2.1c-2-1.8-4.5-2.7-7.2-2.7
		c-0.4,0-0.7,0-1.1,0.1c-0.1,0-0.2,0-0.2,0c-0.3,0-0.5,0.1-0.8,0.1l-0.2,0.1c-0.3,0.1-0.5,0.1-0.8,0.2l-0.2,0.1
		c-0.3,0.1-0.6,0.2-0.8,0.3l-0.1,0c-0.3,0.1-0.6,0.3-0.9,0.4l0,0c-0.7,0.4-1.4,0.9-2,1.4l0,0.1c-2.1,1.8-3.3,4.4-3.5,7.2l0,0.1v19.2
		h7.2v-19.2c0-1.9,1.5-3.4,3.4-3.4c0,0,0,0,0,0h0.3c1.9,0,3.4,1.5,3.4,3.4v19.2h7.2v-19.2c0-1.9,1.5-3.4,3.4-3.4c0,0,0,0,0,0h0.3
		c1.9,0,3.4,1.5,3.4,3.4c0,0,0,0,0,0v19.2h7.2v-19.2C521,209.8,521,209.5,520.9,209.2L520.9,209.2z M445.9,218.9
		c-1.9,2.6-5.2,3.7-8.2,2.6s-5-3.9-4.9-7.1c0.1-3.2,2.4-5.9,5.5-6.7c3.1-0.8,6.3,0.6,8,3.3l6.1-4c-3.4-5.5-10-8.1-16.2-6.4
		c-6.2,1.7-10.6,7.3-10.8,13.7c-0.2,6.5,4,12.2,10.1,14.2c6.1,2,12.9-0.3,16.5-5.6L445.9,218.9z M220.5,218.8c-0.9,0.4-2,0.7-3,0.7
		c-4.1,0-7.4-3.3-7.3-7.4c0,0,0,0,0,0v-11.9h12.2v-9.7h-12.2v-9.7h-9.7l0,31.3c0,9.5,7.6,17.1,17.1,17.1c0,0,0,0,0,0
		c3,0,5.9-0.8,8.5-2.3C226,226.9,220.5,218.8,220.5,218.8z"/>
	<path class="st0" d="M244.5,190.4c-8.2,0-15.4,5.1-18.2,12.8c-2.8,7.7-0.5,16.2,5.7,21.5c6.2,5.3,15.1,6,22.2,2v2.6h9.7v-19.4
		C263.9,199.1,255.3,190.4,244.5,190.4z M244.5,219.5c-5.4,0-9.7-4.3-9.7-9.7c0-5.4,4.3-9.7,9.7-9.7c5.4,0,9.7,4.3,9.7,9.7
		C254.3,215.2,249.9,219.5,244.5,219.5z M336.7,190.4c-8.2,0-15.4,5.1-18.2,12.8c-2.8,7.7-0.5,16.2,5.7,21.5c6.2,5.3,15.1,6,22.2,2
		v2.6h9.7v-19.4C356.1,199.1,347.4,190.4,336.7,190.4z M336.7,219.5c-3.9,0-7.5-2.4-9-6c-1.5-3.6-0.7-7.8,2.1-10.6
		c2.8-2.8,7-3.6,10.6-2.1c3.6,1.5,6,5,6,9C346.4,215.2,342.1,219.5,336.7,219.5L336.7,219.5z M267,229.2h9.7v-53.4H267v53V229.2z
		 M197.5,229.2h-9.7v-21.7c-0.1-4-3.4-7.3-7.4-7.3c-4,0-7.3,3.2-7.4,7.3v21.7h-9.7v-21.7c0.1-9.4,7.8-16.9,17.1-16.9
		c9.4,0,17,7.5,17.1,16.9V229.2z M306.6,216c-2.7,3.2-7.2,4.3-11,2.7c-3.9-1.6-6.3-5.5-5.9-9.7c0.3-4.2,3.4-7.7,7.5-8.6
		c4.1-0.9,8.3,0.9,10.4,4.5l8.2-5.4c-4.6-7.4-13.5-10.8-21.8-8.4c-8.3,2.4-14.1,10-14.1,18.7c0,8.7,5.7,16.3,14.1,18.7
		c8.3,2.4,17.2-1,21.8-8.4l-8.2-5.4C307.2,215.2,306.9,215.6,306.6,216z M124.1,229.2l-5.2-9.5l-5.8-10.6
		c8.1-5.9,10.9-16.7,6.8-25.9c-4.1-9.2-14-14.2-23.8-12.1c-9.8,2.1-16.8,10.8-16.8,20.8v37.2h9.7v-15.9h11.6c1.2,0,2.4-0.1,3.5-0.3
		l9,16.2L124.1,229.2L124.1,229.2L124.1,229.2z M88.9,203.5V192c0-4.7,2.8-8.9,7.1-10.7c4.3-1.8,9.3-0.8,12.6,2.5
		c3.3,3.3,4.3,8.3,2.5,12.6c-1.8,4.3-6,7.1-10.7,7.1L88.9,203.5C88.9,203.5,88.9,203.5,88.9,203.5z M398.2,206c0,0-2.9-0.4-4.2-1.2
		c-0.2-0.1-0.3-0.3-0.5-0.4c0,0-0.1-0.1-0.1-0.1c-0.6-0.6-1-1.5-0.9-2.4l0.1-0.4c0,0.1,0,0.1,0,0.2c0-0.1,0-0.2,0.1-0.3l0,0.1
		c0.1-0.4,0.2-0.7,0.4-1c0.5-0.8,1.3-1.4,2.3-1.6c0.6-0.2,1.2-0.2,1.8-0.2c2.6,0.1,5.2,0.9,6.8,1.7l4.1-7.4
		c-2.7-1.2-8.7-3.3-13.7-2.4c-6.3,0.8-10.8,5.1-11.2,10.6c-0.3,4.4,2.1,8.4,6.2,10.7c0.2,0.1,0.5,0.3,0.9,0.5l0.3,0.1
		c1.2,0.5,2.9,1.2,4.2,1.3c0.9,0.1,1.9,0.2,2.8,0.4c1.8,0.5,3,2,2.9,3.6l-0.1,0.4c0-0.1,0-0.1,0-0.2c0,0.1,0,0.2-0.1,0.3l0-0.1
		c-0.1,0.4-0.2,0.7-0.4,1c-0.5,0.8-1.3,1.4-2.3,1.6c-0.6,0.2-1.2,0.2-1.8,0.2c-4.4-0.1-8.8-2.6-8.8-2.6l-4.8,7l1.2,0.7
		c0,0,8.4,4.3,15.1,3c6.3-0.8,10.8-5.1,11.2-10.6C410.3,212.3,405.5,207,398.2,206L398.2,206z M383,191.8c-2.1-0.9-4.4-1.4-6.7-1.4
		c-9.5,0-17.1,7.7-17.1,17.1v21.7h9.7v-21.7c0-4.1,3.3-7.4,7.4-7.4c1,0,1.9,0.2,2.8,0.6"/>
	<path class="st0" d="M147.8,217c-0.1,0.1-0.2,0.2-0.3,0.3c-2.6,2.2-6,3-9.3,2.2c-3.3-0.8-6-3.1-7.3-6.2h28.8
		c1.9-10.1-4.6-19.9-14.6-22.3c-10-2.4-20.2,3.5-23.1,13.4c-2.9,9.9,2.4,20.3,12.1,23.7c9.7,3.4,20.4-1.3,24.3-10.9
		c0-0.1,0.1-0.2,0.1-0.3L147.8,217C147.8,217,147.8,217,147.8,217z M140.6,199.4c4.2,0,7.9,2.6,9.4,6.5h-18.9
		C132.7,202,136.4,199.4,140.6,199.4C140.6,199.4,140.6,199.4,140.6,199.4z"/>
</g>
</svg>
